<svg id="Layer_1" data-name="Layer 1" xmlns="http://www.w3.org/2000/svg" viewBox="0 0 42.96 43.11"><defs><style>.cls-1{fill:#ffdc4e;}.cls-2{fill:#1d1d1b;}.cls-14,.cls-3{fill:#010101;}.cls-13,.cls-3{opacity:0.2;}.cls-4{fill:#fdc52a;}.cls-5{fill:#383938;}.cls-6{opacity:0.4;}.cls-7{fill:#ea4d5e;}.cls-8{fill:#ec6171;}.cls-9{opacity:0.25;}.cls-10{fill:#76c9df;}.cls-11{fill:#44bbc5;}.cls-12{fill:#fff;}.cls-15{opacity:0.5;}.cls-16{opacity:0.3;}.cls-17{opacity:0.6;}</style></defs><path class="cls-1" d="M40.32,6.21l4.85,8.5-4.85,8.5H30.64l-4.86-8.5,4.86-8.5Zm1.16-2h-12l-6,10.5,6,10.5h12l6-10.5Z" transform="translate(-4.52 -4.21)"/><path class="cls-1" d="M21.36,17.17l4.86,8.5-4.86,8.5H11.68l-4.85-8.5,4.85-8.5Zm1.16-2h-12l-6,10.5,6,10.5h12l6-10.5Z" transform="translate(-4.52 -4.21)"/><path class="cls-2" d="M40.32,28.31l4.85,8.5-4.85,8.5H30.64l-4.86-8.5,4.86-8.5Zm1.16-2h-12l-6,10.5,6,10.5h12l6-10.5Z" transform="translate(-4.52 -4.21)"/><path class="cls-3" d="M36.75,23c.2,0,1.57.13,1.25.47a8.09,8.09,0,0,1-2.9.32c-.22,0-2.94-.12-2.06-.58A4.68,4.68,0,0,1,34.27,23,15.8,15.8,0,0,1,36.75,23Z" transform="translate(-4.52 -4.21)"/><path class="cls-4" d="M34.38,20.62l.08,0c-.05.07.11.15.16.19l.16.1a.06.06,0,0,0,.08,0H35l.18,0c.06,0,.11,0,.11.09s0,.08,0,.12.09.23.16.25.11,0,.13,0,.11-.14.11-.23,0-.08,0-.11.06-.09.12-.09a2.56,2.56,0,0,0,.27,0c.21,0,.34-.15.49-.25l.1-.08a.05.05,0,0,0,0-.07.15.15,0,0,0-.07,0l-.08,0a2.16,2.16,0,0,1-.76.11c-.22,0-.44,0-.66,0a1.85,1.85,0,0,1-.46-.08.34.34,0,0,0-.17,0C34.33,20.54,34.33,20.62,34.38,20.62Z" transform="translate(-4.52 -4.21)"/><path class="cls-4" d="M37.17,21.54a.05.05,0,0,0-.08,0l-.25.12a3.19,3.19,0,0,1-.44.13c-.12,0-.23.07-.35.09l-.46,0c-.11,0-.24,0-.36,0a1.8,1.8,0,0,1-.4,0l-.39-.09a1,1,0,0,1-.33-.13l-.21-.08,0,0a.06.06,0,0,0,0,0,.05.05,0,0,0,0,.08l0,0A1.2,1.2,0,0,0,34,22a.38.38,0,0,0,.17.16l.29.13c.14,0,.3.05.44.08a3.13,3.13,0,0,0,.68,0,1.78,1.78,0,0,0,.61,0,2,2,0,0,0,.42-.1l.13,0a.26.26,0,0,0,.12-.05,1.34,1.34,0,0,0,.27-.31C37.12,21.74,37.2,21.63,37.17,21.54Z" transform="translate(-4.52 -4.21)"/><path class="cls-5" d="M38.46,15.38c0-.06-.07-.07-.11-.05a1.26,1.26,0,0,0-.5-.44.73.73,0,0,0-.58-.05c-.05,0-.11,0-.16,0s-.3.15-.31.25l-.38-.08a5.17,5.17,0,0,0-1.3-.08,3.62,3.62,0,0,0-.46.06h-.11l-.21.05-.17.06a.3.3,0,0,0-.12-.11.87.87,0,0,0-.87-.17,1.35,1.35,0,0,0-.29.16,2.2,2.2,0,0,0-.27.26.19.19,0,0,0-.13.1.19.19,0,0,0,.06.22.14.14,0,0,0,.14,0,.18.18,0,0,0,.06-.14s0-.1,0-.12h0l.16-.17.14-.1a.66.66,0,0,1,.46-.14,1,1,0,0,1,.37.19l.17.11-.18.11a1.28,1.28,0,0,0-.28.16l-.11.09s0,0-.06,0l0,0h0l0,0-.07.08a2.39,2.39,0,0,0-.28.35,3,3,0,0,0-.17.41,1.9,1.9,0,0,0-.11.94c.06.26.17.5.22.75a.69.69,0,0,1,0,.2v.13a.26.26,0,0,0,0,.15,1,1,0,0,0,.66.68,1.86,1.86,0,0,0,.57.16c0,.05.12,0,.17,0h.12a4.43,4.43,0,0,0,.51.06c.07,0,.1,0,.11,0,.17,0,.34,0,.5,0h.71l.35-.05a2.91,2.91,0,0,0,.56-.15,2.33,2.33,0,0,0,.33-.14c.05,0,.23-.08.19-.15a1.09,1.09,0,0,0,.13-.17s.15-.21.11-.26a.66.66,0,0,0,0-.14,1.12,1.12,0,0,1,0-.36,5,5,0,0,0,.2-.76,3.09,3.09,0,0,0,0-.43,1.75,1.75,0,0,0-.3-.94l0,0a0,0,0,0,0,0,0,3.26,3.26,0,0,0-.34-.4,1.51,1.51,0,0,0-.39-.27l-.17-.1h0l.25-.26a.64.64,0,0,1,.43,0,1.09,1.09,0,0,1,.56.45.09.09,0,0,0,0,.15.07.07,0,0,0,.09.07c.06,0,.18,0,.13-.11S38.51,15.4,38.46,15.38Z" transform="translate(-4.52 -4.21)"/><path class="cls-5" d="M34.12,20.13c0,.06-.1.2,0,.23s.07,0,.1.05a5.28,5.28,0,0,0,1.26.22s0,0,0,0a5.14,5.14,0,0,0,.78-.07,1.23,1.23,0,0,0,.53-.17c.13-.09,0-.29,0-.41s0-.22-.09-.31-.17,0-.25,0h-.24a7.21,7.21,0,0,1-1.54,0c-.06,0-.46,0-.46,0s0,0,0,.05a.27.27,0,0,1,0,.09A2,2,0,0,1,34.12,20.13Z" transform="translate(-4.52 -4.21)"/><path class="cls-5" d="M36.85,22.88a1.29,1.29,0,0,1-.21.06l-.4,0a.85.85,0,0,0-.16,0,0,0,0,0,0,0,.09c-.07.12.11.3.21.35.29.19.52-.06.61-.32C36.9,23,37,22.89,36.85,22.88Z" transform="translate(-4.52 -4.21)"/><path class="cls-5" d="M34.85,23a2.9,2.9,0,0,1-.51,0l-.23,0s-.1,0-.08.06,0,.15,0,.19a.44.44,0,0,0,.41.28.36.36,0,0,0,.3-.15C34.83,23.25,35,23,34.85,23Z" transform="translate(-4.52 -4.21)"/><path class="cls-5" d="M37,22a1.75,1.75,0,0,1-.72.28,3.31,3.31,0,0,1-.56.06,3.77,3.77,0,0,1-.58,0,2.31,2.31,0,0,1-.9-.2s-.07,0-.1,0a.05.05,0,0,0,0,.08l.31.14c0,.06.07.06.12.08l.26.08a2.25,2.25,0,0,0,.68.11,2.89,2.89,0,0,0,.92-.18l.16-.05s.11,0,.08-.09a1.87,1.87,0,0,0,.32-.15l.09-.06A.05.05,0,0,0,37,22Z" transform="translate(-4.52 -4.21)"/><path class="cls-5" d="M37.22,21.39h0c0-.09.07-.32-.1-.2a2.69,2.69,0,0,1-.67.3,1.58,1.58,0,0,1-.26.13.9.9,0,0,1-.28,0,.25.25,0,0,1-.21-.06c-.05-.05-.15-.15-.13-.22a0,0,0,0,0,0,0h0c.07,0,0-.11,0-.09h-.09s0,0-.06,0,0,.07.05.08a.25.25,0,0,0,0,.08c0,.3-.41.31-.65.23s-.13-.14-.36-.19a1.28,1.28,0,0,1-.41-.19l-.11-.08a.06.06,0,0,0-.09,0s0,.14,0,.16h0s0,0,0,0a0,0,0,0,0,0,.08,2,2,0,0,0,.58.28,2.77,2.77,0,0,0,.77.15,3.68,3.68,0,0,0,2-.36s.18-.11.18-.15A.05.05,0,0,0,37.22,21.39Z" transform="translate(-4.52 -4.21)"/><path class="cls-4" d="M37.8,17.15a1.2,1.2,0,0,0-.11-.4,1.74,1.74,0,0,0-.1-.19l-.11-.13-.13-.11,0,0h0l0,0h0a1.71,1.71,0,0,0-.23-.13l-.15-.06-.18,0a1.32,1.32,0,0,0-.28,0,.85.85,0,0,0-.23,0,1.24,1.24,0,0,0-.32.12l-.2.11a.74.74,0,0,0-.2.16h0a.53.53,0,0,0-.2-.16l-.2-.11a1.24,1.24,0,0,0-.32-.12.83.83,0,0,0-.22,0,1.37,1.37,0,0,0-.29,0l-.17,0-.16.06a1.71,1.71,0,0,0-.23.13h0l0,0h0l0,0-.13.11-.11.13a1.74,1.74,0,0,0-.1.19,1.47,1.47,0,0,0-.1.4,1.27,1.27,0,0,0,0,.34,2.56,2.56,0,0,0,.05.27,1.23,1.23,0,0,1,.11.53l0,.15a.41.41,0,0,0,0,.11.54.54,0,0,0,0,.22,1.22,1.22,0,0,0,.12.19l.15.15a1.65,1.65,0,0,0,.31.2l.29.11.25.07a2.32,2.32,0,0,0,.38.07,3.51,3.51,0,0,0,.55.05h.15a3.41,3.41,0,0,0,.55-.05,2.66,2.66,0,0,0,.39-.07l.24-.07.29-.11a1.73,1.73,0,0,0,.32-.2l.14-.15a.76.76,0,0,0,.12-.19.34.34,0,0,0,0-.22.21.21,0,0,0,0-.11l0-.15a1.4,1.4,0,0,1,.11-.53,2.56,2.56,0,0,0,0-.27A1.86,1.86,0,0,0,37.8,17.15Zm-2.6,2.44h0Zm.49,0h0Z" transform="translate(-4.52 -4.21)"/><path class="cls-4" d="M34.8,22.5l-.2-.11-.2-.1a2.75,2.75,0,0,0-.36-.15s0,0,0-.06-.11,0-.09.06a4.64,4.64,0,0,1,.11.65,0,0,0,0,0,0,.07l.14,0a1.19,1.19,0,0,0,.46.1c.08,0,.18,0,.23-.05s.09-.25,0-.32A.38.38,0,0,0,34.8,22.5Z" transform="translate(-4.52 -4.21)"/><path class="cls-4" d="M37.17,19.72l-.07-.09v0a.05.05,0,0,0,0-.05S37,19.48,37,19.5s0,0,0,.05l0,0c-.14,0-.1.14-.08.24s0,.13.06.15,0,0,0,0l0,.18a.15.15,0,0,1,0,.13,1.3,1.3,0,0,1-.66.54c-.21.08-.33,0-.45,0l0,0a0,0,0,0,0,0,0c-.12,0,0,.15,0,.19a.66.66,0,0,0-.12.33c0,.09.1.27.22.27a.75.75,0,0,0,.21,0,.39.39,0,0,0,.21-.08.53.53,0,0,1,.2-.13,1.71,1.71,0,0,0,.54-.22,2.19,2.19,0,0,0,.34-.34.92.92,0,0,0,.13-.58A1,1,0,0,0,37.17,19.72Z" transform="translate(-4.52 -4.21)"/><path class="cls-4" d="M37,22l-.06.06a1.39,1.39,0,0,1-.28.26,2.7,2.7,0,0,1-.55.24c-.06,0-.06.05-.06.09a.92.92,0,0,1,0,.16c0,.16.13.15.25.15s.23,0,.34,0l.27-.06a.15.15,0,0,0,.08-.12,5.08,5.08,0,0,0,.07-.67S37,22,37,22Z" transform="translate(-4.52 -4.21)"/><path class="cls-4" d="M35.44,21.14a.24.24,0,0,1-.12,0s.08-.05.1-.09,0-.25-.15-.29a2.45,2.45,0,0,0-.37-.08,1.94,1.94,0,0,1-.48-.16l-.26-.09c-.12-.15,0-.36,0-.54s.09-.36-.17-.33c-.09,0-.13.11-.19.16a1.24,1.24,0,0,0-.14.18,1,1,0,0,0-.12.3.78.78,0,0,0,0,.21,1,1,0,0,0,.47.87,1,1,0,0,0,.32.16,2,2,0,0,0,.35.07c0,.07.11.11.19.12l.24,0c.24.05.33-.26.25-.43a.28.28,0,0,0,.13,0C35.5,21.23,35.5,21.14,35.44,21.14Z" transform="translate(-4.52 -4.21)"/><g class="cls-6"><path class="cls-7" d="M34.52,18.6a.3.3,0,0,1-.16.33.46.46,0,0,1-.2.05h-.07a.35.35,0,0,1-.29-.2.27.27,0,0,1,0-.15.36.36,0,0,1,.11-.21.31.31,0,0,1,.18-.09.49.49,0,0,1,.27,0A.28.28,0,0,1,34.52,18.6Z" transform="translate(-4.52 -4.21)"/><path class="cls-7" d="M37.19,18.62a.22.22,0,0,1,0,.14.36.36,0,0,1-.29.21H36.8a.45.45,0,0,1-.2,0,.3.3,0,0,1-.16-.33.28.28,0,0,1,.19-.27.49.49,0,0,1,.27,0,.32.32,0,0,1,.18.1A.33.33,0,0,1,37.19,18.62Z" transform="translate(-4.52 -4.21)"/></g><path class="cls-8" d="M35.7,18.64s0,0,0,0a.47.47,0,0,1-.12.07l-.07,0h-.09a.34.34,0,0,1-.14-.05s0,0,0,0,0,0,0,0a0,0,0,0,1,0,0l0,0h0l.07,0h.13a.34.34,0,0,1,.1,0Z" transform="translate(-4.52 -4.21)"/><g class="cls-9"><path class="cls-10" d="M39.1,18.36a.92.92,0,0,0-.61-.47c-.16-.05-.29-.05-.38.1a1.66,1.66,0,0,0-.13.73c0,.38-.42.6-.76.74-.15.08,0,.26,0,.35a2.26,2.26,0,0,1,.17.35s0,.1,0,.08h0c.06,0,.13,0,.11-.07l.49-.14a1.62,1.62,0,0,0,.52-.23,1.34,1.34,0,0,0,.51-.77.77.77,0,0,0,0-.26A1.18,1.18,0,0,0,39.1,18.36Z" transform="translate(-4.52 -4.21)"/><path class="cls-10" d="M38.32,20.55a3.46,3.46,0,0,0-.84-.28.05.05,0,1,0,0,.1c0,.11-.06.23-.1.34s-.12.23-.16.36a1.94,1.94,0,0,0,0,.42.87.87,0,0,1-.05.22.83.83,0,0,0,0,.15.15.15,0,0,0,0,.21,1.94,1.94,0,0,0,.73.33.83.83,0,0,0,.44,0,.8.8,0,0,0,.68-.66,1.23,1.23,0,0,0,0-.19,1,1,0,0,0-.07-.29A1.64,1.64,0,0,0,38.32,20.55Z" transform="translate(-4.52 -4.21)"/><path class="cls-10" d="M32.38,19.85a3.17,3.17,0,0,0,.42.19,3.28,3.28,0,0,0,.63.19s.1,0,.07-.08a2.3,2.3,0,0,1,.15-.38.55.55,0,0,1,.17-.17c.06,0,.06-.1,0-.12a1.13,1.13,0,0,1-.83-.66,1.76,1.76,0,0,1,0-.46,1.23,1.23,0,0,0-.07-.32c-.06-.14-.12-.2-.29-.15a2.55,2.55,0,0,0-.39.13,1,1,0,0,0-.31.23,1.41,1.41,0,0,0-.14.44,1,1,0,0,0,.09.52.84.84,0,0,0,.13.27A2,2,0,0,0,32.38,19.85Z" transform="translate(-4.52 -4.21)"/><path class="cls-10" d="M33.82,21.83a1.31,1.31,0,0,0,0-.39c0-.11,0-.21,0-.32a.86.86,0,0,0-.12-.3,1.67,1.67,0,0,1-.08-.2c0-.09,0-.35-.17-.34a2,2,0,0,0-.87.35,1.31,1.31,0,0,0-.45.54.85.85,0,0,0,.18,1,1.48,1.48,0,0,0,.31.15,1.35,1.35,0,0,0,.34.06,1.14,1.14,0,0,0,.67-.19c.05,0,.21-.12.21-.18s.11-.07.12-.13A0,0,0,0,0,33.82,21.83Zm0,.09h0Z" transform="translate(-4.52 -4.21)"/></g><path class="cls-11" d="M32.85,18.61h0v0h0v0h0l0,0v0h0l0,0h0l0,0h0v0h0v0h0v0h0v0l0,0v0h0v0c0,.08.07.17.11.25l-.2-.11h-.19l0,0h0l0,0h-.17l0,0h0l0,0h0l0,0,0,0h.06l0,0h.06l0,0,0,0h0l.27.15-.2.05H32.4l0,0h.26l.28-.07h0l.25.16h0c.06,0,.11-.09,0-.15L33,19v0c0-.12-.09-.23-.14-.34h0Z" transform="translate(-4.52 -4.21)"/><polygon class="cls-11" points="28.19 14.17 28.19 14.17 28.19 14.17 28.19 14.17"/><polygon class="cls-11" points="27.92 14.88 27.92 14.88 27.92 14.88 27.92 14.88"/><polygon class="cls-11" points="28.02 14.84 28.02 14.84 28.02 14.84 28.02 14.84"/><polygon class="cls-11" points="28.12 14.26 28.12 14.25 28.12 14.25 28.12 14.25 28.12 14.25 28.12 14.26"/><polygon class="cls-11" points="28.12 14.18 28.12 14.18 28.12 14.18 28.12 14.18"/><path class="cls-11" d="M32.62,18.37h0v0h0Z" transform="translate(-4.52 -4.21)"/><polygon class="cls-11" points="28.2 14.16 28.2 14.16 28.2 14.16 28.2 14.16"/><polygon class="cls-11" points="27.76 14.52 27.76 14.52 27.77 14.53 27.77 14.52 27.76 14.52 27.76 14.52 27.76 14.52 27.76 14.52 27.76 14.52"/><polygon class="cls-11" points="27.87 14.46 27.87 14.46 27.87 14.46 27.87 14.46"/><polygon class="cls-11" points="27.74 14.4 27.74 14.4 27.74 14.4 27.74 14.4"/><path class="cls-11" d="M33.77,22a1.26,1.26,0,0,1-1.35.27.82.82,0,0,1-.29-.23.87.87,0,0,1,.06-1,1.41,1.41,0,0,1,.82-.56c.16-.05.33-.08.5-.12a.05.05,0,0,0,0,0s0-.07-.06-.07a3,3,0,0,1-.41-.09c-.58-.14-1.22-.52-1.25-1.14a1.14,1.14,0,0,1,.08-.55.76.76,0,0,1,.47-.42,1.07,1.07,0,0,1,.31-.06c.06,0,.16,0,.17-.06s-.07-.07-.12-.06a1.33,1.33,0,0,0-.28,0,1.35,1.35,0,0,0-.48.24,1.76,1.76,0,0,0-.23.37c-.27,1,.5,1.6,1.43,1.81a1.84,1.84,0,0,0-.9.43A1.09,1.09,0,0,0,32,22.07a1,1,0,0,0,.3.27,1.34,1.34,0,0,0,.59.13,1.27,1.27,0,0,0,.92-.36c0-.06.17-.12.1-.19S33.81,22,33.77,22Z" transform="translate(-4.52 -4.21)"/><polygon class="cls-11" points="28.38 16.58 28.38 16.58 28.39 16.58 28.38 16.58"/><polygon class="cls-11" points="28.49 16.68 28.49 16.68 28.49 16.68 28.49 16.68"/><path class="cls-11" d="M33.16,20.83h-.24l0,0,0,0h.22a1.53,1.53,0,0,1,.27.11l-.47.24-.13-.05h-.41l0,0,0,0h0l0,0h0l0,0h0l.19.06-.13.08-.07,0h-.06l0,0h-.14v0h0l0,0h.13l0,0h.14l.23-.12c0,.07,0,.15-.07.23v0h0v.08h0v.06h0v0h0v0l0,0h0v0h0v0h0v0h0v0l0,0v0h0v0h0l0-.12a.14.14,0,0,0,0-.07l.26-.13.18-.09a2.48,2.48,0,0,1,0,.27h0v.07h0s0,0,0,0v.06h0v0h0v.05h0v0h0v0h0v-.08h0v-.07h0v-.1c0-.08,0-.19,0-.28l.06,0c.08,0,0-.14-.05-.11l0,0-.21-.11Z" transform="translate(-4.52 -4.21)"/><polygon class="cls-11" points="28.04 17.48 28.04 17.48 28.04 17.48 28.04 17.48"/><polygon class="cls-11" points="28.4 16.58 28.4 16.58 28.4 16.58 28.4 16.58"/><polygon class="cls-11" points="28.4 17.63 28.4 17.63 28.4 17.63 28.4 17.63"/><polygon class="cls-11" points="28.96 17.54 28.96 17.54 28.96 17.54 28.96 17.54"/><polygon class="cls-11" points="28.45 17.52 28.45 17.52 28.45 17.52 28.45 17.52"/><polygon class="cls-11" points="29.01 17.55 29.01 17.55 29.01 17.55 29.01 17.55 29.01 17.55"/><polygon class="cls-11" points="29.02 17.54 29.02 17.54 29.02 17.54 29.02 17.54"/><polygon class="cls-11" points="29.01 17.55 29.01 17.55 29.01 17.55 29.01 17.55"/><polygon class="cls-11" points="29.01 17.55 29.01 17.55 29.01 17.55 29.01 17.55"/><polygon class="cls-11" points="29.02 17.54 29.02 17.54 29.02 17.54 29.02 17.54"/><polygon class="cls-11" points="29.02 17.54 29.02 17.54 29.02 17.54 29.02 17.54"/><polygon class="cls-11" points="29.05 17.5 29.05 17.5 29.05 17.5 29.05 17.5"/><polygon class="cls-11" points="29.04 17.48 29.04 17.48 29.04 17.48 29.04 17.48"/><polygon class="cls-11" points="28.4 17.63 28.4 17.63 28.4 17.63 28.4 17.63"/><polygon class="cls-11" points="28.4 17.63 28.4 17.63 28.4 17.63 28.4 17.63 28.4 17.63"/><polygon class="cls-11" points="28.4 17.63 28.4 17.63 28.4 17.63 28.4 17.63"/><polygon class="cls-11" points="28.4 17.63 28.4 17.63 28.4 17.63 28.4 17.63"/><polygon class="cls-11" points="28.13 17.02 28.13 17.02 28.13 17.02 28.13 17.02 28.13 17.02"/><polygon class="cls-11" points="28.14 17.02 28.14 17.02 28.14 17.02 28.14 17.02"/><polygon class="cls-11" points="28.13 17.02 28.13 17.02 28.13 17.02 28.13 17.02"/><polygon class="cls-11" points="28.13 17.02 28.13 17.02 28.13 17.02 28.13 17.02"/><polygon class="cls-11" points="28.49 16.69 28.49 16.69 28.49 16.69 28.49 16.69"/><polygon class="cls-11" points="28.33 16.62 28.33 16.62 28.33 16.63 28.33 16.62"/><polygon class="cls-11" points="28.54 16.6 28.54 16.6 28.54 16.6 28.54 16.6 28.54 16.6 28.54 16.6 28.54 16.6"/><polygon class="cls-11" points="28.54 16.6 28.54 16.6 28.54 16.6 28.54 16.6"/><polygon class="cls-11" points="28.18 17.03 28.18 17.03 28.18 17.03 28.18 17.03"/><polygon class="cls-11" points="28.18 17.03 28.18 17.03 28.18 17.03 28.18 17.03"/><polygon class="cls-11" points="28.1 17.01 28.1 17.01 28.1 17.01 28.1 17.01"/><polygon class="cls-11" points="28.1 17.01 28.09 17.01 28.1 17.01 28.1 17.01 28.1 17.01"/><polygon class="cls-11" points="27.95 17.07 27.95 17.07 27.95 17.07 27.95 17.07"/><polygon class="cls-11" points="27.95 17.07 27.95 17.07 27.95 17.07 27.95 17.07"/><polygon class="cls-11" points="27.95 17.07 27.95 17.07 27.95 17.07 27.95 17.07 27.95 17.07 27.95 17.07"/><polygon class="cls-11" points="27.95 17.07 27.95 17.07 27.95 17.07 27.95 17.07"/><polygon class="cls-11" points="27.95 17.07 27.95 17.07 27.95 17.07 27.95 17.07"/><path class="cls-11" d="M32.42,21.26h0Z" transform="translate(-4.52 -4.21)"/><polygon class="cls-11" points="27.91 17.47 27.91 17.47 27.91 17.47 27.91 17.47"/><polygon class="cls-11" points="28.04 17.48 28.04 17.48 28.04 17.48 28.04 17.48"/><polygon class="cls-11" points="33.68 15.44 33.68 15.44 33.68 15.44 33.68 15.44 33.68 15.44"/><polygon class="cls-11" points="33.66 15.41 33.66 15.41 33.66 15.41 33.66 15.41"/><polygon class="cls-11" points="33.42 15.36 33.42 15.36 33.42 15.36 33.42 15.36"/><path class="cls-11" d="M37.74,19.52H38l0,0-.09,0c-.14-.06-.28-.1-.41-.17a.07.07,0,0,0-.06.11A2.52,2.52,0,0,0,37.74,19.52Z" transform="translate(-4.52 -4.21)"/><polygon class="cls-11" points="33.37 15.37 33.37 15.37 33.37 15.37 33.37 15.37"/><polygon class="cls-11" points="33.66 15.35 33.66 15.35 33.66 15.35 33.66 15.35"/><polygon class="cls-11" points="33.28 15.33 33.28 15.33 33.28 15.33 33.28 15.33"/><polygon class="cls-11" points="33.6 15.32 33.6 15.32 33.6 15.32 33.6 15.32"/><polygon class="cls-11" points="34.23 14.43 34.23 14.43 34.23 14.43 34.23 14.43"/><polygon class="cls-11" points="33.7 14.27 33.7 14.27 33.7 14.27 33.7 14.27"/><polygon class="cls-11" points="33.69 14.28 33.69 14.28 33.69 14.28 33.69 14.28"/><polygon class="cls-11" points="34.26 14.39 34.26 14.39 34.26 14.39 34.26 14.39"/><polygon class="cls-11" points="34.26 14.39 34.26 14.39 34.26 14.39 34.26 14.39"/><polygon class="cls-11" points="33.75 14.22 33.75 14.22 33.75 14.22 33.75 14.22"/><polygon class="cls-11" points="34.12 14.51 34.12 14.51 34.12 14.51 34.12 14.51"/><polygon class="cls-11" points="33.76 14.31 33.76 14.31 33.76 14.31 33.76 14.31"/><path class="cls-11" d="M37.75,19.24h0l.26-.16h0l.2.05h0l-.1,0,.28-.16h.12l0,0h-.23l-.26.14.1-.25s0-.07.05-.1h0v0h0v0h0l0,0h-.06l0,0,0,0v0h0v0h0l0,0h0v0h0v0h0v0h0c0,.06,0,.12-.08.19a0,0,0,0,0,0,0l-.18.11C37.64,19.15,37.68,19.24,37.75,19.24Z" transform="translate(-4.52 -4.21)"/><polygon class="cls-11" points="33.9 14.51 33.9 14.51 33.9 14.51 33.9 14.51"/><polygon class="cls-11" points="33.97 14.48 33.97 14.48 33.97 14.48 33.97 14.48"/><polygon class="cls-11" points="33.97 14.61 33.97 14.61 33.97 14.61 33.97 14.61"/><polygon class="cls-11" points="33.52 14.54 33.52 14.54 33.52 14.54 33.52 14.54"/><path class="cls-11" d="M38.09,18.64v0h0s0,.07,0,.11h0Z" transform="translate(-4.52 -4.21)"/><polygon class="cls-11" points="33.56 14.45 33.56 14.45 33.56 14.45 33.56 14.45"/><polygon class="cls-11" points="33.56 14.45 33.56 14.45 33.56 14.45 33.56 14.45"/><polygon class="cls-11" points="33.76 14.31 33.76 14.31 33.76 14.31 33.76 14.31"/><polygon class="cls-11" points="33.76 14.31 33.76 14.31 33.76 14.31 33.76 14.31"/><polygon class="cls-11" points="33.76 14.31 33.76 14.31 33.76 14.31 33.76 14.31"/><polygon class="cls-11" points="33.76 14.3 33.76 14.3 33.76 14.3 33.76 14.3"/><polygon class="cls-11" points="33.76 14.3 33.76 14.3 33.76 14.3 33.76 14.3"/><polygon class="cls-11" points="33.76 14.3 33.76 14.3 33.76 14.3 33.76 14.3"/><polygon class="cls-11" points="33.76 14.3 33.76 14.3 33.76 14.3 33.76 14.3"/><polygon class="cls-11" points="33.76 14.3 33.76 14.3 33.76 14.3 33.76 14.3"/><polygon class="cls-11" points="33.76 14.3 33.76 14.3 33.76 14.3 33.76 14.3"/><polygon class="cls-11" points="33.69 14.25 33.69 14.25 33.69 14.25 33.69 14.25"/><path class="cls-11" d="M38.24,18.41h0Z" transform="translate(-4.52 -4.21)"/><polygon class="cls-11" points="33.8 14.11 33.8 14.11 33.8 14.11 33.8 14.11 33.8 14.11"/><polygon class="cls-11" points="33.85 14.94 33.86 14.94 33.86 14.94 33.85 14.94"/><polygon class="cls-11" points="33.96 14.94 33.96 14.94 33.96 14.94 33.96 14.94"/><polygon class="cls-11" points="34.25 14.38 34.25 14.38 34.25 14.38 34.25 14.38"/><path class="cls-11" d="M37.77,20.25c.94-.21,1.71-.78,1.43-1.81a1.2,1.2,0,0,0-.23-.37,1.31,1.31,0,0,0-.47-.24,1.43,1.43,0,0,0-.29,0c-.05,0-.11,0-.11.06s.11.05.17.06a1.07,1.07,0,0,1,.3.06.73.73,0,0,1,.47.42,1,1,0,0,1,.08.55c0,.62-.66,1-1.25,1.14a2.88,2.88,0,0,1-.4.09.07.07,0,0,0,0,.12c.17,0,.34.07.51.12a1.4,1.4,0,0,1,.81.56.87.87,0,0,1,.06,1,.82.82,0,0,1-.29.23,1.16,1.16,0,0,1-.49.09,1.11,1.11,0,0,1-.85-.36s-.09-.12-.16-.07.06.13.1.19a1.31,1.31,0,0,0,.93.36,1.34,1.34,0,0,0,.59-.13.86.86,0,0,0,.3-.27,1.1,1.1,0,0,0-.28-1.38A1.94,1.94,0,0,0,37.77,20.25Z" transform="translate(-4.52 -4.21)"/><polygon class="cls-11" points="33.57 17.74 33.57 17.75 33.57 17.75 33.57 17.74"/><polygon class="cls-11" points="33.52 16.59 33.52 16.59 33.52 16.59 33.52 16.59"/><path class="cls-11" d="M37.24,21.1l.07,0a2.4,2.4,0,0,0,0,.28,1.11,1.11,0,0,0,0,.17h0v0h0v0h0v.11h0v0h0v0h0v-.17h0v-.06h0v-.18c0-.05,0-.11,0-.16l.19.09.25.13a.24.24,0,0,1,0,.08l0,.15h0v.06h0v0h0v0s0,0,0,0V22h0s0,0,0,0h0v-.09h0v0h0v0h0v-.07h0v0h0A1.21,1.21,0,0,1,38,21.5l.22.12h.31l0,0v0h0l0,0h-.06l0,0,0,0,0,0h-.1l0,0,0,0H38.1l.17-.05h0l0,0h.18l0,0h-.36l-.07,0-.13,0-.47-.24A1,1,0,0,1,37.7,21h0l.05,0,0,0h.08l0,0h-.16l-.21.07-.21.11-.05,0A.06.06,0,1,0,37.24,21.1Z" transform="translate(-4.52 -4.21)"/><polygon class="cls-11" points="33.76 17.12 33.76 17.12 33.76 17.12 33.76 17.12"/><polygon class="cls-11" points="33.78 17.31 33.78 17.31 33.78 17.31 33.78 17.31 33.78 17.31"/><polygon class="cls-11" points="33.57 17.49 33.57 17.49 33.57 17.49 33.57 17.49"/><polygon class="cls-11" points="33.33 16.71 33.33 16.71 33.33 16.71 33.33 16.71"/><polygon class="cls-11" points="33.57 17.75 33.57 17.75 33.57 17.75 33.57 17.75"/><path class="cls-11" d="M38.15,21.93v0Z" transform="translate(-4.52 -4.21)"/><polygon class="cls-11" points="33.48 17.59 33.48 17.59 33.48 17.59 33.48 17.59"/><polygon class="cls-11" points="33.81 17.45 33.81 17.45 33.81 17.45 33.81 17.45"/><polygon class="cls-11" points="33.97 17.46 33.97 17.46 33.97 17.46 33.97 17.46"/><polygon class="cls-11" points="34.05 17.57 34.05 17.57 34.06 17.57 34.06 17.57 34.05 17.57"/><polygon class="cls-11" points="34.04 17.55 34.04 17.55 34.04 17.55 34.04 17.55"/><polygon class="cls-11" points="33.99 17.55 33.99 17.55 33.99 17.55 33.99 17.55"/><polygon class="cls-11" points="33.99 17.55 33.99 17.55 33.99 17.55 33.99 17.55 33.99 17.55 33.99 17.55"/><polygon class="cls-11" points="33.99 17.55 33.99 17.55 33.99 17.55 33.99 17.55 33.99 17.55 33.99 17.55"/><path class="cls-11" d="M38.41,21.71h0Z" transform="translate(-4.52 -4.21)"/><polygon class="cls-11" points="33.78 17.31 33.78 17.31 33.78 17.31 33.78 17.31"/><polygon class="cls-11" points="33.96 17.07 33.95 17.07 33.95 17.07 33.96 17.07"/><polygon class="cls-11" points="34.04 17.02 34.04 17.02 34.04 17.02 34.04 17.02"/><polygon class="cls-11" points="33.79 17 33.79 17 33.79 17 33.79 17 33.79 17 33.79 17"/><polygon class="cls-11" points="33.9 16.99 33.9 16.99 33.9 16.99 33.9 16.99"/><polygon class="cls-11" points="33.9 16.99 33.9 16.99 33.9 16.99 33.9 16.99 33.9 16.99"/><polygon class="cls-11" points="34 16.97 34 16.97 34 16.97 34 16.97 34 16.97 34 16.97 34 16.97"/><polygon class="cls-11" points="33.38 16.71 33.37 16.71 33.38 16.71 33.38 16.71"/><polygon class="cls-11" points="33.58 16.63 33.58 16.63 33.57 16.63 33.58 16.63"/><polygon class="cls-11" points="33.52 16.58 33.52 16.58 33.53 16.58 33.53 16.58 33.52 16.58"/><path class="cls-11" d="M33,19.47h-.21l0,0,0,0h.4a2.28,2.28,0,0,0,.36-.15.06.06,0,0,0,0-.11,3.47,3.47,0,0,1-.41.16Z" transform="translate(-4.52 -4.21)"/><polygon class="cls-11" points="28.47 15.39 28.47 15.39 28.47 15.39 28.47 15.39"/><polygon class="cls-11" points="28.47 15.39 28.47 15.39 28.47 15.39 28.47 15.39"/><polygon class="cls-11" points="28.47 15.39 28.47 15.39 28.47 15.39 28.47 15.39 28.47 15.39 28.47 15.39"/><polygon class="cls-11" points="28.3 15.35 28.3 15.35 28.3 15.35 28.3 15.35"/><path class="cls-12" d="M34.37,17.54c-.13-.05-.07-.36.08-.33S34.6,17.63,34.37,17.54Z" transform="translate(-4.52 -4.21)"/><path class="cls-12" d="M36.49,17.52c-.06,0-.12-.09-.12-.15a.22.22,0,0,1,.07-.17.07.07,0,0,1,.08,0C36.72,17.16,36.7,17.61,36.49,17.52Z" transform="translate(-4.52 -4.21)"/><g class="cls-9"><path class="cls-11" d="M33.8,21.82h0v0s0,0,0,0l0-.05a.52.52,0,0,1,0-.17V21.5a.06.06,0,0,0,0,0,0,0,0,0,0,0,0,1.18,1.18,0,0,1-.11.19.93.93,0,0,1-.44.28l-.3.07a1.61,1.61,0,0,1-.38,0,1.81,1.81,0,0,1-.31-.09h0s0,0,0,0a0,0,0,0,0,0,0l.11.12a.72.72,0,0,0,.19.11l.15,0a.69.69,0,0,0,.2,0h0a1.66,1.66,0,0,0,.61-.14,2.26,2.26,0,0,0,.26-.16l.12-.12S33.81,21.8,33.8,21.82Z" transform="translate(-4.52 -4.21)"/><path class="cls-11" d="M32.46,19.73l.14.08A3.49,3.49,0,0,0,33,20l.27.08h.06l0,0,.14,0s0,0,0,0h0c.06,0,.07,0,.1-.07l0-.09s0-.06,0-.07l-.1,0-.43-.12a2,2,0,0,1-.65-.31,1.2,1.2,0,0,1-.23-.22.92.92,0,0,1-.19-.4l0-.12a.19.19,0,0,0,0-.08s0,0,0,0l0,.11s0,.06,0,.09v.1a1.21,1.21,0,0,0,.13.42A1.3,1.3,0,0,0,32.46,19.73Z" transform="translate(-4.52 -4.21)"/><path class="cls-11" d="M38.81,21.89h0a1.38,1.38,0,0,1-.69.1l-.3-.07a.9.9,0,0,1-.43-.28,1.22,1.22,0,0,1-.12-.19h0a.06.06,0,0,0,0,0v.05a.47.47,0,0,1,0,.17s0,0,0,.05v0a.11.11,0,0,0,0,.05l0,0a0,0,0,1,0,0,0,.68.68,0,0,0,.12.12l.25.16a1.1,1.1,0,0,0,.35.11,1.24,1.24,0,0,0,.27,0h0l.21,0,.14-.05A1.22,1.22,0,0,0,38.7,22l.12-.12h0S38.82,21.9,38.81,21.89Z" transform="translate(-4.52 -4.21)"/><path class="cls-11" d="M39.07,18.79a.44.44,0,0,1,0-.1.43.43,0,0,1,0-.11h0a.22.22,0,0,0,0,.08.5.5,0,0,1,0,.12,1.38,1.38,0,0,1-.19.41,1.51,1.51,0,0,1-.23.21,2.24,2.24,0,0,1-.66.32l-.43.11-.1,0s0,0,0,.07a.41.41,0,0,0,0,.09s0,.07.09.07h0s0,0,0,0l.14,0h.06l.05,0L38,20a2.32,2.32,0,0,0,.39-.18l.14-.08a1.6,1.6,0,0,0,.44-.42,1.2,1.2,0,0,0,.12-.42A.28.28,0,0,0,39.07,18.79Z" transform="translate(-4.52 -4.21)"/></g><g class="cls-13"><path class="cls-14" d="M37.34,20.47a0,0,0,0,0,0,0,1,1,0,0,1-.07.15,1.07,1.07,0,0,1-.32.36l-.24.13-.13.05-.24.06a.16.16,0,0,0-.1.08h0l0,0a.13.13,0,0,1-.14.06h-.14a.17.17,0,0,1-.1,0,.17.17,0,0,1-.07-.13s0,0,0,0,0,.05,0,.08a0,0,0,0,0,0,0h0a.09.09,0,0,0,0,.05.25.25,0,0,0,.07.12l0,0H36a.49.49,0,0,0,.21,0,.38.38,0,0,0,.15-.09s0,0,0,0v0s0,0,0,0a2.44,2.44,0,0,0,.34-.14,1.36,1.36,0,0,0,.34-.25.86.86,0,0,0,.27-.49S37.35,20.48,37.34,20.47Z" transform="translate(-4.52 -4.21)"/><path class="cls-14" d="M33.68,19.81s0,0,0,0l.05,0h.13a.37.37,0,0,1,.18,0l.07,0a.11.11,0,0,0,.08,0,.25.25,0,0,0,.12,0h.3l.21,0L35,20l.39,0h.09l.58,0,.31-.05a1.5,1.5,0,0,1,.37,0l.1,0h0a.18.18,0,0,0,.07-.05l.09-.05.16,0c.09,0,0-.05,0-.08a.39.39,0,0,0-.08-.1.11.11,0,0,0-.09-.05.9.9,0,0,0-.23,0l-.22,0-.21,0a1.54,1.54,0,0,1-.3,0h-.87l-.68,0a1.73,1.73,0,0,1-.32,0l-.1,0s0,0-.06,0l-.06,0h0s0,0-.05,0h0v0h0s0,0,0,0l0,0s0,0,0,0h0l-.07.06s0,0,0,0l-.07,0Zm.11-.06h0S33.78,19.75,33.79,19.75Z" transform="translate(-4.52 -4.21)"/><path class="cls-14" d="M34.75,22.49l-.3-.11,0,0h0s0,0,0,0l-.13-.11a1.36,1.36,0,0,1-.12-.12l0,0s0,0,0,0h0l0,0a.52.52,0,0,0,.11.1l.15.14a.55.55,0,0,1,.16.3.58.58,0,0,1,0,.19,1.5,1.5,0,0,1,0,.22.34.34,0,0,1-.09.25s0,0-.07,0,0,0,0,0h.09a.5.5,0,0,0,.2-.15,1,1,0,0,0,.14-.56.77.77,0,0,0,0-.15C34.84,22.54,34.78,22.51,34.75,22.49Z" transform="translate(-4.52 -4.21)"/><path class="cls-14" d="M37,22.06a.53.53,0,0,0-.12.1l-.09.08a1.6,1.6,0,0,1-.4.23l-.12.05a.1.1,0,0,0,0,0h0l0,0s0,0,0,.05a.48.48,0,0,0,0,.17,1,1,0,0,0,0,.24l0,.11a.51.51,0,0,0,.09.16l.1.12a.36.36,0,0,0,.2.06s0-.1,0-.12a.52.52,0,0,1-.06-.13.77.77,0,0,1,0-.15.6.6,0,0,1,0-.19v-.22s0,0,0-.05,0,0,0-.05v0h0v-.06h0v-.06h.07v0h0l0,0h.07v0h0l0,0h.06l0-.06s0,0,0,0S37,22.05,37,22.06Zm-.79.51h0Z" transform="translate(-4.52 -4.21)"/><path class="cls-14" d="M36.76,22.29h0l0,0h0v0h0v0h0l0,0v0h0Z" transform="translate(-4.52 -4.21)"/><polygon class="cls-14" points="32.24 18.08 32.24 18.08 32.24 18.08 32.24 18.08 32.24 18.08 32.24 18.08 32.24 18.08"/><polygon class="cls-14" points="32.19 18.12 32.19 18.12 32.19 18.12 32.19 18.12"/><polygon class="cls-14" points="32.21 18.09 32.21 18.09 32.21 18.09 32.21 18.09"/><polygon class="cls-14" points="32.21 18.09 32.21 18.09 32.21 18.09 32.21 18.09"/><path class="cls-14" d="M36.82,22.29h0l0,0h0Z" transform="translate(-4.52 -4.21)"/><polygon class="cls-14" points="32.21 18.09 32.21 18.09 32.21 18.09 32.21 18.09 32.21 18.09 32.21 18.09"/><polygon class="cls-14" points="32.21 18.09 32.21 18.09 32.21 18.09 32.21 18.09"/><polygon class="cls-14" points="32.21 18.09 32.21 18.09 32.21 18.09 32.21 18.09"/><polygon class="cls-14" points="32.24 18.08 32.24 18.08 32.24 18.08 32.24 18.08"/><polygon class="cls-14" points="32.24 18.08 32.24 18.08 32.24 18.08 32.24 18.08 32.24 18.08"/><polygon class="cls-14" points="32.24 18.08 32.24 18.08 32.24 18.08 32.24 18.08"/><polygon class="cls-14" points="32.24 18.08 32.24 18.08 32.24 18.08 32.24 18.08 32.24 18.08 32.24 18.08 32.24 18.08"/><polygon class="cls-14" points="32.24 18.08 32.24 18.08 32.24 18.08 32.24 18.08"/><polygon class="cls-14" points="32.39 17.98 32.39 17.97 32.39 17.97 32.39 17.98"/><path class="cls-14" d="M37.12,21.18a0,0,0,0,0,0,0h0a.09.09,0,0,0,0,.05s0,0,0,.05l-.13.23a1.16,1.16,0,0,1-.4.36l-.14.09-.26.11a2.5,2.5,0,0,1-.49.1,3.7,3.7,0,0,1-.47,0,2.57,2.57,0,0,1-.38-.08L34.63,22l-.15-.09-.15-.09-.11-.09a.86.86,0,0,1-.14-.13.67.67,0,0,1-.09-.14.88.88,0,0,1-.1-.22v0h0s0,0,0,0h0v.14h0v0a1,1,0,0,0,0,.24.66.66,0,0,0,.09.19,1.25,1.25,0,0,0,.26.29,1.55,1.55,0,0,0,.35.21,1.94,1.94,0,0,0,.75.2h.09l.27,0,.13,0h0l.16,0,.23-.07a1.85,1.85,0,0,0,.37-.19,1.47,1.47,0,0,0,.3-.31,1.4,1.4,0,0,0,.16-.4,1.11,1.11,0,0,0,0-.19v0a.14.14,0,0,0,0-.06S37.13,21.17,37.12,21.18Z" transform="translate(-4.52 -4.21)"/><path class="cls-14" d="M33.83,21.22h0v0h0v0h0Z" transform="translate(-4.52 -4.21)"/><path class="cls-14" d="M33.78,21.15l0,.06h0l0,0S33.77,21.13,33.78,21.15Z" transform="translate(-4.52 -4.21)"/><polygon class="cls-14" points="29.32 17 29.32 17 29.32 17 29.32 17"/><polygon class="cls-14" points="30.46 17.19 30.46 17.19 30.46 17.19 30.46 17.19"/><path class="cls-14" d="M34,21.15a1.15,1.15,0,0,0,.27.14l.15.06.11,0,.11,0h0l0,.05a.18.18,0,0,0,.09.08,1.52,1.52,0,0,0,.21,0l.09,0h0a.11.11,0,0,0,.08,0,.2.2,0,0,0,.08-.12.22.22,0,0,0,0-.11h0l0,0h-.57l0,0h-.17a.76.76,0,0,1-.18-.09,1.21,1.21,0,0,1-.3-.2,1,1,0,0,1-.26-.34.83.83,0,0,0,0-.15s0,0,0,0h0c0,.06,0,.11,0,.17a.62.62,0,0,0,.15.34A1.42,1.42,0,0,0,34,21.15Z" transform="translate(-4.52 -4.21)"/><polygon class="cls-14" points="30.34 17.16 30.34 17.16 30.34 17.16 30.34 17.16"/><polygon class="cls-14" points="30.64 17.2 30.64 17.2 30.65 17.2 30.64 17.2 30.64 17.2 30.64 17.2"/><polygon class="cls-14" points="30.48 17.18 30.48 17.18 30.48 17.18 30.48 17.18 30.48 17.18 30.48 17.18"/><path class="cls-14" d="M34.92,21.37h0Z" transform="translate(-4.52 -4.21)"/><polygon class="cls-14" points="30.43 17.14 30.43 17.14 30.43 17.14 30.42 17.14 30.42 17.14 30.42 17.14 30.42 17.14 30.42 17.14 30.42 17.14 30.42 17.14 30.42 17.14 30.42 17.14 30.42 17.14 30.42 17.14 30.42 17.14 30.43 17.14 30.43 17.14 30.43 17.14 30.43 17.14"/><polygon class="cls-14" points="30.42 17.14 30.42 17.14 30.42 17.14 30.42 17.14 30.42 17.14"/><polygon class="cls-14" points="30.73 17.14 30.73 17.14 30.73 17.14 30.73 17.14 30.73 17.14"/><polygon class="cls-14" points="30.3 17.11 30.29 17.11 30.29 17.1 30.3 17.11"/><polygon class="cls-14" points="30.43 17.19 30.42 17.19 30.42 17.19 30.43 17.19"/><path class="cls-14" d="M35.2,19.61h0l.18,0h.21l.18,0a.33.33,0,0,1,.1,0,0,0,0,0,0,0,0h-.7Zm.21,0Z" transform="translate(-4.52 -4.21)"/><polygon class="cls-14" points="30.89 15.39 30.89 15.39 30.89 15.39 30.89 15.39 30.89 15.39"/><path class="cls-14" d="M35.11,19.6h0Z" transform="translate(-4.52 -4.21)"/><path class="cls-14" d="M35.5,19.59h0Z" transform="translate(-4.52 -4.21)"/><path class="cls-14" d="M35.78,19.57h0Z" transform="translate(-4.52 -4.21)"/><polygon class="cls-14" points="30.92 15.36 30.92 15.36 30.92 15.36 30.92 15.36"/><polygon class="cls-14" points="30.83 15.38 30.82 15.38 30.82 15.38 30.82 15.38 30.82 15.38 30.82 15.38 30.82 15.38 30.82 15.38 30.82 15.38 30.83 15.38 30.83 15.38 30.83 15.38 30.83 15.38 30.83 15.38"/><polygon class="cls-14" points="30.92 15.36 30.92 15.36 30.92 15.36 30.92 15.36"/><path class="cls-14" d="M38.1,17.42h0l0,.11a1.73,1.73,0,0,1-.18.39c-.07.11-.16.21-.23.32a1.55,1.55,0,0,0-.08.23,1,1,0,0,1-.36.35,1.73,1.73,0,0,1-.32.11l-.27.07a4.59,4.59,0,0,1-.51.1l-.36,0h-.51l-.36,0a4.18,4.18,0,0,1-.51-.1L34.09,19a1.75,1.75,0,0,1-.32-.12.76.76,0,0,1-.36-.35,2,2,0,0,0-.08-.22c-.07-.11-.16-.21-.23-.33a1.46,1.46,0,0,1-.18-.38l0-.11s0,0,0,0a0,0,0,0,0,0,0c0,.05,0,.1,0,.15a1.21,1.21,0,0,0,.09.31,1.39,1.39,0,0,1,.12.36,2.28,2.28,0,0,1,0,.26.65.65,0,0,0,0,.2.8.8,0,0,0,.08.16,1.2,1.2,0,0,0,.23.22.91.91,0,0,0,.17.09l.23.1.33.1.25,0,.38.08h1.41l.38-.07.24-.05.33-.1.24-.09a1,1,0,0,0,.17-.1.92.92,0,0,0,.22-.22.51.51,0,0,0,.09-.16.64.64,0,0,0,0-.2c0-.08,0-.17,0-.26a1.65,1.65,0,0,1,.11-.36,1.12,1.12,0,0,0,.1-.31.77.77,0,0,1,0-.15A0,0,0,0,0,38.1,17.42Z" transform="translate(-4.52 -4.21)"/><path class="cls-14" d="M35.27,18.68v0h0s0,0,.06,0a.2.2,0,0,1,.26,0s.06,0,0-.05a0,0,0,1,0,0,0l-.07,0s0,0-.06,0h-.1s-.08,0-.11,0l-.12,0S35.23,18.69,35.27,18.68Z" transform="translate(-4.52 -4.21)"/></g><g class="cls-15"><path class="cls-12" d="M33.49,20.49s0-.06,0-.07h-.07l-.13,0-.12,0-.17.06c-.09,0-.18.07-.27.12l-.1.07a1.09,1.09,0,0,0-.17.13.93.93,0,0,0-.13.15.74.74,0,0,0-.14.22.87.87,0,0,0-.08.26,1.3,1.3,0,0,0,0,.34h0V21.6s0,0,0,0l0,0,0,0v0a.08.08,0,0,1,0,0l0,0h0v0h0l0,0h0l0,0,0,0,0,0h0a.75.75,0,0,1,.16-.15,2,2,0,0,1,.38-.23,1.36,1.36,0,0,1,.3-.13l.24,0s0,0,0,0A.88.88,0,0,0,33.49,20.49Z" transform="translate(-4.52 -4.21)"/><path class="cls-12" d="M32.16,21.66h0v0Z" transform="translate(-4.52 -4.21)"/><polygon class="cls-12" points="27.77 17.18 27.77 17.18 27.77 17.18 27.77 17.18"/><polygon class="cls-12" points="27.77 17.18 27.77 17.18 27.77 17.18 27.77 17.18 27.77 17.18"/><rect class="cls-12" x="32.29" y="21.38" transform="translate(-7.93 32.2) rotate(-56.34)"/><path class="cls-12" d="M32.46,18.24a1,1,0,0,1,.24,0,.42.42,0,0,1,.16,0s.06,0,0-.05a.17.17,0,0,0,0-.1A.18.18,0,0,0,32.8,18h.05s0,0,0,0h-.15a1.14,1.14,0,0,0-.25.06,1.24,1.24,0,0,0-.2.1.65.65,0,0,0-.18.19.61.61,0,0,0-.07.1s0,0,0,.05h0s0,0,0,0h0l.08-.06A.82.82,0,0,1,32.46,18.24Z" transform="translate(-4.52 -4.21)"/><polygon class="cls-12" points="34.47 14.31 34.47 14.31 34.47 14.3 34.47 14.31"/><path class="cls-12" d="M39,18.51h0v-.08h0v0h0l0,0v0h0l-.08-.09-.07,0a1,1,0,0,0-.33-.15.83.83,0,0,0-.22,0h-.06v0h0s0,0,0,0h0s0,0,0,0h0v0s0,.08,0,.1h.64l0,0h0l0,0h0v0h0l0,0h0l0,0v0h0v0h0ZM38.18,18h0Z" transform="translate(-4.52 -4.21)"/><polygon class="cls-12" points="34.48 14.31 34.48 14.31 34.48 14.31 34.48 14.31"/><polygon class="cls-12" points="34.48 14.31 34.48 14.31 34.48 14.31 34.48 14.31"/><polygon class="cls-12" points="34.45 14.22 34.45 14.22 34.45 14.22 34.45 14.22"/><polygon class="cls-12" points="34.45 14.22 34.45 14.22 34.45 14.22 34.45 14.22"/><polygon class="cls-12" points="34.09 17.04 34.09 17.04 34.09 17.04 34.09 17.04"/><path class="cls-12" d="M38.83,21.35a.85.85,0,0,0-.14-.34,1.39,1.39,0,0,0-.21-.21,2,2,0,0,0-.54-.28l-.27-.08-.18,0a0,0,0,0,0,0,0v0h0a.11.11,0,0,0-.08.11.15.15,0,0,0,0,.09h0l.17,0,.24.07.19.08.15.1c.07,0,.14.1.21.15l.1.12h0l0,0h0v0l0,0h0l0,0h0l0,0v.08h0a.36.36,0,0,1,0,.09h0v.14h0v0h0v0h0a0,0,0,0,0,0,0,.83.83,0,0,0,0-.15,1.28,1.28,0,0,0,0-.19Z" transform="translate(-4.52 -4.21)"/><polygon class="cls-12" points="34.3 17.59 34.3 17.59 34.3 17.59 34.3 17.59"/><polygon class="cls-12" points="34.26 17.4 34.26 17.4 34.26 17.4 34.26 17.4"/><polygon class="cls-12" points="34.25 17.38 34.25 17.38 34.25 17.38 34.25 17.38"/><polygon class="cls-12" points="34.24 17.34 34.24 17.34 34.24 17.34 34.24 17.34 34.24 17.33 34.24 17.33 34.23 17.33 34.23 17.33 34.24 17.34 34.24 17.34 34.24 17.34 34.24 17.34"/><polygon class="cls-12" points="34.24 17.34 34.24 17.34 34.24 17.34 34.24 17.34"/><path class="cls-12" d="M38.71,21.43h0a.05.05,0,0,0,0,0Z" transform="translate(-4.52 -4.21)"/></g><g class="cls-16"><path class="cls-12" d="M34.33,19.91h-.12v0a.85.85,0,0,0,0,.17,1.52,1.52,0,0,0,0,.21,0,0,0,0,0,0,.05h0s0,0,0,0h0c.06,0,0-.05.06-.08l0-.17,0-.15a.13.13,0,0,0,0-.06h0Z" transform="translate(-4.52 -4.21)"/><path class="cls-12" d="M36.79,20.07a0,0,0,0,0,0,0l0-.11a.24.24,0,0,1,0-.08h-.14a.19.19,0,0,1,0,.07,3.48,3.48,0,0,0,.1.44h0s0,0,0,0h0s0,0,0,0,0-.1,0-.13Z" transform="translate(-4.52 -4.21)"/><polygon class="cls-12" points="32.15 15.65 32.15 15.65 32.15 15.65 32.15 15.65"/><polygon class="cls-12" points="32.15 15.65 32.15 15.65 32.15 15.65 32.15 15.65"/><polygon class="cls-12" points="32.23 15.65 32.23 15.65 32.23 15.65 32.23 15.65"/><path class="cls-12" d="M36.74,19.82h0Z" transform="translate(-4.52 -4.21)"/><polygon class="cls-12" points="32.22 15.59 32.22 15.59 32.22 15.59 32.22 15.59"/><path class="cls-12" d="M38.46,15.4a.21.21,0,0,0-.11-.08l-.14-.15a1.13,1.13,0,0,0-.27-.22l-.23-.11-.1,0s0-.05,0,0a.84.84,0,0,0-.33.06h0c-.07,0-.16,0-.16.07A1,1,0,0,0,37,15h0c0-.06-.07,0-.09,0s-.05,0-.06.05,0,0,0,.06h0s0,0,0,0,0,0-.08,0l-.13,0A5.74,5.74,0,0,0,35.37,15c-.11,0-.55,0-.6.06a2.66,2.66,0,0,0-.39.07.14.14,0,0,0-.11,0l-.07,0s0,0,0,0h0l0,0a.07.07,0,0,0,0,0l0,0a.84.84,0,0,0-.44-.22l0,0a.74.74,0,0,0-.26,0l-.11,0h0a1.31,1.31,0,0,0-.36.21l-.2.22s0,0,0,.05h-.05a.14.14,0,0,0-.08.09.22.22,0,0,0,0,.16,0,0,0,0,0,.05,0s0,0,0-.05h0s.12,0,.1-.09h0a0,0,0,0,0,0,0s.06,0,.09-.05l0,0,.07-.08c0-.05.09-.1.15-.15a1,1,0,0,1,.42-.21h.21a.82.82,0,0,1,.47.22h0s.06.09,0,.12l0,0s0,0,0,0h0l-.17.1s-.08.05-.11.06a1.09,1.09,0,0,0-.17.13s-.12.08-.16.11a1.83,1.83,0,0,0-.39.49,1.28,1.28,0,0,0-.11.21s0,.06,0,.09a1.17,1.17,0,0,0-.05.2s0,.05,0,.08,0,.1,0,.16l0,.34s0,0,0,0a3.87,3.87,0,0,0,0,.48s.07,0,.06,0,0-.21,0-.31a2.92,2.92,0,0,1,0-.59v0a1.19,1.19,0,0,1,.08-.2,1.83,1.83,0,0,1,.25-.48,1.94,1.94,0,0,1,1-.76,1.3,1.3,0,0,1,.52,0l.19,0a3.57,3.57,0,0,0,.73.1,3.9,3.9,0,0,0,.59,0l.3-.06h.2a1.17,1.17,0,0,1,.73.33,2.46,2.46,0,0,1,.56.73.93.93,0,0,1,.13.35c0,.11,0,.22.05.33a2.56,2.56,0,0,1-.07.62,1.42,1.42,0,0,0-.05.16S38,18,38,18l0,0s.07-.23.09-.27a1.77,1.77,0,0,0,.09-.56v0a2.64,2.64,0,0,0,0-.29,1.06,1.06,0,0,0-.09-.35v0a0,0,0,0,0,0,0,2,2,0,0,0-.77-1l-.12-.08,0,0a0,0,0,0,0,0,0s-.06,0-.09,0,0,0,0,0a0,0,0,0,0,0,0h0s0,0-.07,0l0,0s0-.05,0,0l-.05,0h0v0h0v0h0v0a1,1,0,0,1,.34-.22.79.79,0,0,1,.48,0,1.41,1.41,0,0,1,.35.23c.08.07.14.15.21.22s0,0,.06,0a.08.08,0,0,0,0,.13h.05c0,.05-.05.08,0,.1s.06,0,.07-.07A.16.16,0,0,0,38.46,15.4Zm-1.65-.18h0v0Zm1.6.21Z" transform="translate(-4.52 -4.21)"/></g><g class="cls-17"><path class="cls-12" d="M33.84,19.78h-.1a.05.05,0,0,1,0,0,1.58,1.58,0,0,0-.13.26s0,.09,0,.12,0,.13,0,.15,0,.11,0,.12a1.49,1.49,0,0,0,.05.36h0a0,0,0,0,0,0,0h0s0,0,0,0l0-.14a1.82,1.82,0,0,1,0-.33,1.2,1.2,0,0,1,.08-.27.67.67,0,0,1,.06-.12,1,1,0,0,1,.11-.17Z" transform="translate(-4.52 -4.21)"/><polygon class="cls-12" points="29.07 16.63 29.07 16.62 29.07 16.62 29.07 16.63"/><polygon class="cls-12" points="29.23 15.58 29.23 15.58 29.23 15.58 29.23 15.58"/><polygon class="cls-12" points="29.38 15.52 29.38 15.52 29.38 15.52 29.38 15.52"/><polygon class="cls-12" points="30.62 16.77 30.62 16.77 30.62 16.78 30.62 16.77"/><polygon class="cls-12" points="30.33 16.84 30.33 16.84 30.33 16.84 30.33 16.84"/><polygon class="cls-12" points="30.49 16.83 30.49 16.83 30.49 16.83 30.49 16.83"/><polygon class="cls-12" points="30.69 16.81 30.69 16.81 30.69 16.81 30.69 16.81"/><polygon class="cls-12" points="30.54 16.81 30.54 16.81 30.54 16.81 30.54 16.81"/><polygon class="cls-12" points="30.54 16.81 30.54 16.81 30.54 16.81 30.54 16.81"/><polygon class="cls-12" points="30.69 16.76 30.69 16.76 30.68 16.76 30.68 16.76 30.68 16.76 30.68 16.76 30.69 16.76 30.69 16.76"/><polygon class="cls-12" points="30.33 16.84 30.33 16.84 30.33 16.84 30.33 16.84"/><polygon class="cls-12" points="30.33 16.84 30.33 16.84 30.33 16.84 30.33 16.84"/><path class="cls-12" d="M35.19,21.11s0,0,0,0a.24.24,0,0,0,.09-.08s0-.1,0-.09A1.05,1.05,0,0,0,35,21l-.1,0a0,0,0,0,0,0,0l-.27-.1a1.81,1.81,0,0,1-.41-.3l-.14-.18L34,20.28s0,0,0,0,0,0,0-.05l0-.1,0-.05s0,0-.05,0,0,0,0,.05,0,.06,0,.09a.5.5,0,0,0,0,.12,1.74,1.74,0,0,0,.11.18,1.88,1.88,0,0,0,.24.25,1.25,1.25,0,0,0,.41.23h.4s.06.06.09.09a.42.42,0,0,1,.09.14.38.38,0,0,1,0,.23s-.08.08,0,.1h0s0,0,0-.05a.33.33,0,0,0,.07-.16A.32.32,0,0,0,35.19,21.11Z" transform="translate(-4.52 -4.21)"/><path class="cls-12" d="M35.78,21.08a.4.4,0,0,0-.17.3s0,.14,0,.15,0-.06,0-.09a.33.33,0,0,1,0-.14.3.3,0,0,1,.06-.11l.09-.07s0,0,0-.05S35.78,21,35.78,21.08Z" transform="translate(-4.52 -4.21)"/><path class="cls-12" d="M37,20.12h0s0,0,0,.05a.79.79,0,0,1-.32.52s-.1.05-.13.06a2,2,0,0,1-.31.19.24.24,0,0,1-.16,0H36s0,0,0,0-.24-.12-.33-.07,0,0,0,.07.07,0,.06,0,.11,0,.2,0a.41.41,0,0,0,.16.05h0a.51.51,0,0,0,.31-.11,1.28,1.28,0,0,0,.25-.15.84.84,0,0,0,.41-.61v-.06ZM36,21h0Z" transform="translate(-4.52 -4.21)"/><path class="cls-12" d="M37.41,20.25a1.12,1.12,0,0,0-.12-.32s0-.06,0-.08l-.07-.09h-.09l0,0,.08.14a1.71,1.71,0,0,1,.13.38,1.77,1.77,0,0,1,0,.23,1.52,1.52,0,0,1-.18.46,0,0,0,0,0,0,0h0s0,0,0,0a.51.51,0,0,0,.09-.16A.93.93,0,0,0,37.41,20.25Z" transform="translate(-4.52 -4.21)"/><path class="cls-12" d="M34.28,23.09a2.32,2.32,0,0,1-.07-.46c0-.12,0-.25,0-.37s0,0,0,0a0,0,0,0,0,0,0,.06.06,0,0,0,0-.05h0a.25.25,0,0,0,0-.08s0,0,0,0,0,0,0,0a3.91,3.91,0,0,0,.05.48,2.7,2.7,0,0,0,0,.28,1.19,1.19,0,0,0,.1.32.64.64,0,0,0,.14.22s0,0,.06,0,0-.09,0-.12A1.3,1.3,0,0,1,34.28,23.09Z" transform="translate(-4.52 -4.21)"/><path class="cls-12" d="M36.86,22.14s0,.09,0,.12,0,0,0,0h0s0,0-.06,0,0,.16,0,.24a4.62,4.62,0,0,1-.07.65,1.16,1.16,0,0,1,0,.18s0,.08,0,.11.06,0,.07-.05a.42.42,0,0,0,.06-.14,1.69,1.69,0,0,0,.12-.44c0-.21.05-.42.07-.64C36.91,22.15,36.88,22.13,36.86,22.14Z" transform="translate(-4.52 -4.21)"/><path class="cls-12" d="M36,18.43s0-.08,0-.1a0,0,0,0,0,0,0s0,0,0,0a.44.44,0,0,1-.1.22.57.57,0,0,1-.24.19l-.07,0s0,0,0,0h0l-.14,0h0a.21.21,0,0,1-.1-.06.59.59,0,0,1-.22-.35.31.31,0,0,1,0-.1s0,0,0-.05h0v0h0v0h0v.06a.61.61,0,0,0,.46.48h.1a.36.36,0,0,0,.2-.06A.65.65,0,0,0,36,18.43Z" transform="translate(-4.52 -4.21)"/><path class="cls-12" d="M34.93,18.25Z" transform="translate(-4.52 -4.21)"/></g><path class="cls-14" d="M34.74,17.22a.36.36,0,0,0-.42-.13h0l0,0h0l0,0,0,0,0,.06h0l0,.05,0,.08a.06.06,0,0,1,0,0h0a.13.13,0,0,0,0,.06s0,.05,0,.07v.16h0a.48.48,0,0,0,.36.3h.05c.29,0,.37-.28.36-.52A.6.6,0,0,0,34.74,17.22Zm-.28.27a.12.12,0,1,1,0-.24h0C34.58,17.25,34.61,17.48,34.46,17.49Z" transform="translate(-4.52 -4.21)"/><path class="cls-14" d="M34.07,16.74h0l0,0,.14,0a1.6,1.6,0,0,1,.31,0h.08a0,0,0,0,0,0,0,.68.68,0,0,0-.12-.12.28.28,0,0,0-.34,0l-.11.1s0,0,0,0Z" transform="translate(-4.52 -4.21)"/><path class="cls-14" d="M38.5,15.26a.25.25,0,0,0-.12,0l0-.06a2.18,2.18,0,0,0-.21-.22,1,1,0,0,0-1.32,0l-.06.06-.22,0a2.32,2.32,0,0,0-.59-.07H35a3.81,3.81,0,0,0-.59.07l-.22.06L34.15,15a1,1,0,0,0-1.32,0,1.47,1.47,0,0,0-.21.22.15.15,0,0,0,0,.06.25.25,0,0,0-.12,0,.24.24,0,0,0,.13.43h0a.25.25,0,0,0,.23-.3s0,0,0-.05l.14-.14a.62.62,0,0,1,.88-.05l0,0-.09.05a3.77,3.77,0,0,0-.52.37,2.22,2.22,0,0,0-.34.45.59.59,0,0,1,0,.08l0,.08h0l-.09.2a1.42,1.42,0,0,0-.1.58,1.88,1.88,0,0,0,0,.41,2.59,2.59,0,0,0,.09.4c0,.14.1.26.13.4a1.34,1.34,0,0,1,0,.4,1,1,0,0,0,.33.62.05.05,0,0,0,0,0,1.69,1.69,0,0,0,.57.28l-.07.07a1.21,1.21,0,0,0-.23,1.19,1.17,1.17,0,0,0,.17.28h0l0,0a.5.5,0,0,0,0,.12,1.2,1.2,0,0,0,.15.67c0,.06,0,.13,0,.19,0,.21,0,.41.06.62s0,.22.06.33a.67.67,0,0,0,.12.29.6.6,0,0,0,.38.21h0a.54.54,0,0,0,.35-.16.81.81,0,0,0,.18-.44c0-.07,0-.13,0-.19a.44.44,0,0,1,0-.1,1.81,1.81,0,0,0,.4,0h.08a1.81,1.81,0,0,0,.4,0,.37.37,0,0,1,0,.09c0,.07,0,.13,0,.19a.76.76,0,0,0,.18.44.5.5,0,0,0,.35.16h0a.56.56,0,0,0,.38-.21A.58.58,0,0,0,37,23c0-.11,0-.22.06-.33s0-.42.06-.63c0-.06,0-.12,0-.19a1.17,1.17,0,0,0,.15-.66.51.51,0,0,0,0-.13l0,0h0a.88.88,0,0,0,.17-.28,1.19,1.19,0,0,0-.23-1.18l-.07-.08a1.66,1.66,0,0,0,.57-.27s0,0,0,0a.93.93,0,0,0,.33-.61,1.41,1.41,0,0,1,0-.41c0-.13.09-.26.13-.39a2.88,2.88,0,0,0,.09-.4,2,2,0,0,0,0-.42,1.48,1.48,0,0,0-.1-.58l-.09-.2h0a.25.25,0,0,0,0-.07l0-.09a3,3,0,0,0-.34-.45,4.87,4.87,0,0,0-.52-.37l-.09,0,0,0a.6.6,0,0,1,.88.05l.14.13a.14.14,0,0,0,0,.06.24.24,0,0,0,.23.29h0A.25.25,0,0,0,38.5,15.26Zm-4.79,5.67a1,1,0,0,1,.07-1.18l.13-.14,0,0,.17,0h0s0,0,0,0a3,3,0,0,0-.08.32,1.16,1.16,0,0,1,0,.18h-.08v0h0v0h0l0,0h0v0h0v0h.08l0,0,0,0h0a2.29,2.29,0,0,0,.49.38.48.48,0,0,0,.26.07l.15-.05c.09,0,.19-.07.19,0h0v0h0a.22.22,0,0,1-.3.17c-.1,0-.22,0-.31-.07s0-.08-.08-.11h-.09a.8.8,0,0,1-.21-.05,1.49,1.49,0,0,1-.51-.31h0l0,0A.73.73,0,0,0,33.71,20.93Zm.57-1.28h0a5.83,5.83,0,0,0,.71.06c.17,0,.34,0,.5,0H36a5.88,5.88,0,0,0,.71-.07h0c0,.1.06.21.08.31s0,.17.05.24,0,.08,0,.11h0v0a.56.56,0,0,0-.12,0l-.2.08a3.41,3.41,0,0,1-1,.14h0a3.14,3.14,0,0,1-1-.14l-.2-.08-.12,0v0h0s0-.08,0-.11A2,2,0,0,1,34.2,20,2.81,2.81,0,0,1,34.28,19.65Zm0,0h0Zm2.45,0h0Zm-1.88,3.5a.34.34,0,0,1-.59.15.62.62,0,0,1-.16-.37l.06,0a2.79,2.79,0,0,0,.4.07h.12l.21,0A.37.37,0,0,1,34.82,23.15Zm.08-.41c0,.05,0,.1,0,.15h0a1.58,1.58,0,0,1-.61,0l-.12,0-.07,0s0-.07,0-.1,0-.34-.05-.52,0-.06,0-.09a1.21,1.21,0,0,0,.24.21,2.55,2.55,0,0,0,.7.3C34.9,22.66,34.91,22.71,34.9,22.74Zm1.83.55a.4.4,0,0,1-.3.11.38.38,0,0,1-.29-.26.33.33,0,0,1,0-.14l.21,0h.12a1.87,1.87,0,0,0,.4-.07h.06A.6.6,0,0,1,36.73,23.29Zm.25-1.1c0,.17,0,.35,0,.52s0,.06,0,.09l-.07,0-.12,0a1.57,1.57,0,0,1-.61,0h0c0-.05,0-.1,0-.15s0-.08,0-.13a2.55,2.55,0,0,0,.7-.3A1.21,1.21,0,0,0,37,22.1S37,22.16,37,22.19Zm-1.2.35c-.1,0-.21,0-.31,0h0c-.1,0-.2,0-.29,0-.73-.12-1.42-.53-1.38-1.3V21.2a1.51,1.51,0,0,0,.74.34h0a.34.34,0,0,0,.31.17l.15,0,.1,0a.38.38,0,0,0,.34-.41.46.46,0,0,0-.14-.24.5.5,0,0,0,.07-.08.14.14,0,0,0-.07-.22.26.26,0,0,0-.21,0,.76.76,0,0,1-.2.06.81.81,0,0,1-.32-.16l-.21-.17a3.31,3.31,0,0,0,.94.16h.34a3,3,0,0,0,.94-.17l-.21.17a.81.81,0,0,1-.32.16.76.76,0,0,1-.2-.06.38.38,0,0,0-.21,0,.14.14,0,0,0-.07.22.27.27,0,0,0,.07.08.45.45,0,0,0-.14.25.38.38,0,0,0,.34.4H36a.39.39,0,0,1,.15,0,.37.37,0,0,0,.31-.17h0a1.59,1.59,0,0,0,.74-.33v0C37.2,22,36.51,22.42,35.78,22.54Zm1.4-2.79a1,1,0,0,1,.07,1.18s0,.06-.08.08,0,0,0,0h0a1.69,1.69,0,0,1-.51.32l-.21.05h-.09s-.05.08-.08.11-.21,0-.31.07-.3-.09-.31-.25a0,0,0,0,1,0,0h0v0h0s.11,0,.19,0S36,21,36,21a.36.36,0,0,0,.26-.07,2.63,2.63,0,0,0,.61-.49h0v0h0v0h0v0h0v0h0v0l0,0h0v0a1.16,1.16,0,0,1,0-.18c0-.11,0-.22-.08-.33s0,0,0,0h0l.17,0a.08.08,0,0,1,0,0A.86.86,0,0,1,37.18,19.75Zm1.12-4.19a.12.12,0,0,1-.06-.13l0,0,0,0v0h0a1.26,1.26,0,0,0-.47-.38.59.59,0,0,0-.43,0,1,1,0,0,0-.37.2l0,0h0l0,0v0h0v0h0l.21.11a3.88,3.88,0,0,1,.33.23,1.44,1.44,0,0,1,.33.32c.07.1.13.2.19.3a.2.2,0,0,0,0,.08l0,0a1.45,1.45,0,0,1,.16.68,1.69,1.69,0,0,1,0,.5c0,.11,0,.22-.08.33S38,18,38,18.15c-.08.29.06.37-.08.7a1.1,1.1,0,0,1-.18.26h0l-.15.11a2.11,2.11,0,0,1-.54.22h0a4.87,4.87,0,0,1-.65.1,6.87,6.87,0,0,1-.78,0h-.18c-.26,0-.51,0-.78,0a4.9,4.9,0,0,1-.65-.11h0a2.09,2.09,0,0,1-.54-.21,1.58,1.58,0,0,1-.15-.12h0a.81.81,0,0,1-.18-.26c-.14-.32,0-.41-.08-.69a3.4,3.4,0,0,0-.12-.34,3.38,3.38,0,0,1-.08-.34,2.07,2.07,0,0,1,0-.5,1.58,1.58,0,0,1,.17-.67l0,0a.3.3,0,0,0,0-.08,2.2,2.2,0,0,1,.19-.3,1.29,1.29,0,0,1,.33-.33,3.78,3.78,0,0,1,.33-.22l.21-.11h0v0h0v0l0,0h0l0,0a1,1,0,0,0-.37-.2.64.64,0,0,0-.43,0,1.36,1.36,0,0,0-.47.38h0v0s0,0,0,0,0,0,0,0a.13.13,0,0,1-.06.13c-.12.07-.21-.1-.14-.19s.08,0,.12,0h0l.06-.07a1.21,1.21,0,0,1,.21-.24.93.93,0,0,1,.63-.2A.92.92,0,0,1,34,15l0,0h0l0,0,0,0h0v0a1,1,0,0,1,.23-.07l.29-.06.25,0H36l.25,0,.29.06.23.07h0v0h0l0,0,0,0h0l0,0a.89.89,0,0,1,.48-.2A.93.93,0,0,1,38,15a1.51,1.51,0,0,1,.21.23.22.22,0,0,0,.06.07h0s.08,0,.12.05S38.42,15.64,38.3,15.56Z" transform="translate(-4.52 -4.21)"/><path class="cls-14" d="M36.89,17.47a.17.17,0,0,0,0-.07h0v0l0-.07,0-.06h0l0-.06,0,0,0,0h0l0,0h0a.35.35,0,0,0-.42.14.57.57,0,0,0-.11.25c0,.24.07.53.36.53h.05a.46.46,0,0,0,.36-.3h0v-.14h0S36.89,17.49,36.89,17.47Zm-.39,0c-.15,0-.12-.24,0-.24h0A.12.12,0,0,1,36.5,17.49Z" transform="translate(-4.52 -4.21)"/><path class="cls-14" d="M36.32,16.7l.08,0a1.63,1.63,0,0,1,.31,0l.14,0h0s0,0,0,0l-.11-.1a.29.29,0,0,0-.34-.05.5.5,0,0,0-.12.13A0,0,0,0,0,36.32,16.7Z" transform="translate(-4.52 -4.21)"/><path class="cls-14" d="M36,18.29h0v0H36l0,0h0l0,0h0l0,0,0,0h-.09a.42.42,0,0,1-.23.07h-.1a.5.5,0,0,1-.28-.12h-.06l0,0H35v0h0v0h0v0h0v0h0v0h0v0h0v0h0l0,.07a.58.58,0,0,0,.4.26h.08a.63.63,0,0,0,.38-.25A.57.57,0,0,0,36,18.3Zm-.46.43-.09,0h0l-.06,0a.61.61,0,0,1-.14-.07h0a.16.16,0,0,1,.09,0h.12s0,0,0,0h.07l.06,0,0,0Z" transform="translate(-4.52 -4.21)"/></svg>